<svg xmlns="http://www.w3.org/2000/svg" viewBox="0 0 24 24" width="24" height="24" shape-rendering="crispEdges" role="img" aria-label="DAI">
<g fill="#684906">
<rect x="9" y="0" width="6" height="1"/>
<rect x="6" y="1" width="3" height="1"/>
<rect x="15" y="1" width="3" height="1"/>
<rect x="5" y="2" width="1" height="1"/>
<rect x="18" y="2" width="1" height="1"/>
<rect x="4" y="3" width="1" height="1"/>
<rect x="19" y="3" width="1" height="1"/>
<rect x="3" y="4" width="1" height="1"/>
<rect x="20" y="4" width="1" height="1"/>
<rect x="2" y="5" width="1" height="1"/>
<rect x="21" y="5" width="1" height="1"/>
<rect x="1" y="6" width="1" height="1"/>
<rect x="22" y="6" width="1" height="1"/>
<rect x="1" y="7" width="1" height="1"/>
<rect x="22" y="7" width="1" height="1"/>
<rect x="1" y="8" width="1" height="1"/>
<rect x="22" y="8" width="1" height="1"/>
<rect x="0" y="9" width="1" height="1"/>
<rect x="23" y="9" width="1" height="1"/>
<rect x="0" y="10" width="1" height="1"/>
<rect x="23" y="10" width="1" height="1"/>
<rect x="0" y="11" width="1" height="1"/>
<rect x="23" y="11" width="1" height="1"/>
<rect x="0" y="12" width="1" height="1"/>
<rect x="23" y="12" width="1" height="1"/>
<rect x="0" y="13" width="1" height="1"/>
<rect x="23" y="13" width="1" height="1"/>
<rect x="0" y="14" width="1" height="1"/>
<rect x="23" y="14" width="1" height="1"/>
<rect x="1" y="15" width="1" height="1"/>
<rect x="22" y="15" width="1" height="1"/>
<rect x="1" y="16" width="1" height="1"/>
<rect x="22" y="16" width="1" height="1"/>
<rect x="1" y="17" width="1" height="1"/>
<rect x="22" y="17" width="1" height="1"/>
<rect x="2" y="18" width="1" height="1"/>
<rect x="21" y="18" width="1" height="1"/>
<rect x="3" y="19" width="1" height="1"/>
<rect x="20" y="19" width="1" height="1"/>
<rect x="4" y="20" width="1" height="1"/>
<rect x="19" y="20" width="1" height="1"/>
<rect x="5" y="21" width="1" height="1"/>
<rect x="18" y="21" width="1" height="1"/>
<rect x="6" y="22" width="3" height="1"/>
<rect x="15" y="22" width="3" height="1"/>
<rect x="9" y="23" width="6" height="1"/>
</g>
<g fill="#CE910B">
<rect x="8" y="7" width="6" height="1"/>
<rect x="8" y="8" width="1" height="1"/>
<rect x="15" y="8" width="1" height="1"/>
<rect x="8" y="9" width="1" height="1"/>
<rect x="22" y="10" width="1" height="1"/>
<rect x="6" y="11" width="1" height="1"/>
<rect x="8" y="11" width="9" height="1"/>
<rect x="18" y="11" width="5" height="1"/>
<rect x="8" y="12" width="1" height="1"/>
<rect x="18" y="12" width="5" height="1"/>
<rect x="19" y="13" width="4" height="1"/>
<rect x="6" y="14" width="1" height="1"/>
<rect x="8" y="14" width="8" height="1"/>
<rect x="18" y="14" width="5" height="1"/>
<rect x="8" y="15" width="1" height="1"/>
<rect x="14" y="15" width="2" height="1"/>
<rect x="17" y="15" width="5" height="1"/>
<rect x="8" y="16" width="1" height="1"/>
<rect x="13" y="16" width="1" height="1"/>
<rect x="16" y="16" width="6" height="1"/>
<rect x="14" y="17" width="8" height="1"/>
<rect x="8" y="18" width="13" height="1"/>
<rect x="9" y="19" width="11" height="1"/>
<rect x="7" y="20" width="12" height="1"/>
<rect x="6" y="21" width="12" height="1"/>
<rect x="9" y="22" width="6" height="1"/>
</g>
<g fill="#F4B731">
<rect x="18" y="3" width="1" height="1"/>
<rect x="17" y="4" width="3" height="1"/>
<rect x="15" y="5" width="6" height="1"/>
<rect x="14" y="6" width="8" height="1"/>
<rect x="16" y="7" width="6" height="1"/>
<rect x="11" y="8" width="4" height="1"/>
<rect x="17" y="8" width="5" height="1"/>
<rect x="9" y="9" width="7" height="1"/>
<rect x="18" y="9" width="5" height="1"/>
<rect x="19" y="10" width="3" height="1"/>
<rect x="5" y="12" width="2" height="1"/>
<rect x="9" y="12" width="8" height="1"/>
<rect x="4" y="13" width="1" height="1"/>
<rect x="2" y="14" width="4" height="1"/>
<rect x="2" y="15" width="5" height="1"/>
<rect x="9" y="15" width="5" height="1"/>
<rect x="2" y="16" width="5" height="1"/>
<rect x="9" y="16" width="4" height="1"/>
<rect x="2" y="17" width="5" height="1"/>
<rect x="3" y="18" width="5" height="1"/>
<rect x="4" y="19" width="5" height="1"/>
<rect x="5" y="20" width="2" height="1"/>
</g>
<g fill="#F9CE6E">
<rect x="9" y="1" width="6" height="1"/>
<rect x="8" y="2" width="10" height="1"/>
<rect x="7" y="3" width="11" height="1"/>
<rect x="5" y="4" width="12" height="1"/>
<rect x="4" y="5" width="11" height="1"/>
<rect x="2" y="6" width="5" height="1"/>
<rect x="2" y="7" width="5" height="1"/>
<rect x="2" y="8" width="5" height="1"/>
<rect x="9" y="8" width="2" height="1"/>
<rect x="1" y="9" width="6" height="1"/>
<rect x="1" y="10" width="4" height="1"/>
<rect x="1" y="11" width="5" height="1"/>
<rect x="1" y="12" width="4" height="1"/>
<rect x="1" y="13" width="3" height="1"/>
<rect x="1" y="14" width="1" height="1"/>
</g>
<g fill="#F9E4B6">
<rect x="6" y="2" width="2" height="1"/>
<rect x="5" y="3" width="2" height="1"/>
<rect x="4" y="4" width="1" height="1"/>
<rect x="3" y="5" width="1" height="1"/>
</g>
<g fill="#FFFFFF">
<rect x="7" y="6" width="7" height="1"/>
<rect x="7" y="7" width="1" height="1"/>
<rect x="14" y="7" width="2" height="1"/>
<rect x="7" y="8" width="1" height="1"/>
<rect x="16" y="8" width="1" height="1"/>
<rect x="7" y="9" width="1" height="1"/>
<rect x="16" y="9" width="2" height="1"/>
<rect x="5" y="10" width="14" height="1"/>
<rect x="7" y="11" width="1" height="1"/>
<rect x="17" y="11" width="1" height="1"/>
<rect x="7" y="12" width="1" height="1"/>
<rect x="17" y="12" width="1" height="1"/>
<rect x="5" y="13" width="14" height="1"/>
<rect x="7" y="14" width="1" height="1"/>
<rect x="16" y="14" width="2" height="1"/>
<rect x="7" y="15" width="1" height="1"/>
<rect x="16" y="15" width="1" height="1"/>
<rect x="7" y="16" width="1" height="1"/>
<rect x="14" y="16" width="2" height="1"/>
<rect x="7" y="17" width="7" height="1"/>
</g>
</svg>