<svg xmlns="http://www.w3.org/2000/svg" viewBox="0 0 32 32" width="32" height="32" shape-rendering="crispEdges" role="img" aria-label="USDC">
<g fill="#112139">
<rect x="12" y="0" width="8" height="1"/>
<rect x="9" y="1" width="3" height="1"/>
<rect x="20" y="1" width="3" height="1"/>
<rect x="7" y="2" width="2" height="1"/>
<rect x="23" y="2" width="2" height="1"/>
<rect x="6" y="3" width="1" height="1"/>
<rect x="25" y="3" width="1" height="1"/>
<rect x="5" y="4" width="1" height="1"/>
<rect x="26" y="4" width="1" height="1"/>
<rect x="4" y="5" width="1" height="1"/>
<rect x="27" y="5" width="1" height="1"/>
<rect x="3" y="6" width="1" height="1"/>
<rect x="28" y="6" width="1" height="1"/>
<rect x="2" y="7" width="1" height="1"/>
<rect x="29" y="7" width="1" height="1"/>
<rect x="2" y="8" width="1" height="1"/>
<rect x="29" y="8" width="1" height="1"/>
<rect x="1" y="9" width="1" height="1"/>
<rect x="30" y="9" width="1" height="1"/>
<rect x="1" y="10" width="1" height="1"/>
<rect x="30" y="10" width="1" height="1"/>
<rect x="1" y="11" width="1" height="1"/>
<rect x="30" y="11" width="1" height="1"/>
<rect x="0" y="12" width="1" height="1"/>
<rect x="31" y="12" width="1" height="1"/>
<rect x="0" y="13" width="1" height="1"/>
<rect x="31" y="13" width="1" height="1"/>
<rect x="0" y="14" width="1" height="1"/>
<rect x="31" y="14" width="1" height="1"/>
<rect x="0" y="15" width="1" height="1"/>
<rect x="31" y="15" width="1" height="1"/>
<rect x="0" y="16" width="1" height="1"/>
<rect x="31" y="16" width="1" height="1"/>
<rect x="0" y="17" width="1" height="1"/>
<rect x="31" y="17" width="1" height="1"/>
<rect x="0" y="18" width="1" height="1"/>
<rect x="31" y="18" width="1" height="1"/>
<rect x="0" y="19" width="1" height="1"/>
<rect x="31" y="19" width="1" height="1"/>
<rect x="1" y="20" width="1" height="1"/>
<rect x="30" y="20" width="1" height="1"/>
<rect x="1" y="21" width="1" height="1"/>
<rect x="30" y="21" width="1" height="1"/>
<rect x="1" y="22" width="1" height="1"/>
<rect x="30" y="22" width="1" height="1"/>
<rect x="2" y="23" width="1" height="1"/>
<rect x="29" y="23" width="1" height="1"/>
<rect x="2" y="24" width="1" height="1"/>
<rect x="29" y="24" width="1" height="1"/>
<rect x="3" y="25" width="1" height="1"/>
<rect x="28" y="25" width="1" height="1"/>
<rect x="4" y="26" width="1" height="1"/>
<rect x="27" y="26" width="1" height="1"/>
<rect x="5" y="27" width="1" height="1"/>
<rect x="26" y="27" width="1" height="1"/>
<rect x="6" y="28" width="1" height="1"/>
<rect x="25" y="28" width="1" height="1"/>
<rect x="7" y="29" width="2" height="1"/>
<rect x="23" y="29" width="2" height="1"/>
<rect x="9" y="30" width="3" height="1"/>
<rect x="20" y="30" width="3" height="1"/>
<rect x="12" y="31" width="8" height="1"/>
</g>
<g fill="#2A518B">
<rect x="12" y="7" width="2" height="1"/>
<rect x="11" y="8" width="2" height="1"/>
<rect x="9" y="9" width="3" height="1"/>
<rect x="22" y="9" width="1" height="1"/>
<rect x="9" y="10" width="1" height="1"/>
<rect x="17" y="10" width="1" height="1"/>
<rect x="25" y="10" width="1" height="1"/>
<rect x="8" y="11" width="2" height="1"/>
<rect x="7" y="12" width="2" height="1"/>
<rect x="14" y="12" width="4" height="1"/>
<rect x="26" y="12" width="1" height="1"/>
<rect x="7" y="13" width="1" height="1"/>
<rect x="14" y="13" width="1" height="1"/>
<rect x="19" y="13" width="1" height="1"/>
<rect x="26" y="13" width="1" height="1"/>
<rect x="29" y="13" width="2" height="1"/>
<rect x="7" y="14" width="1" height="1"/>
<rect x="14" y="14" width="1" height="1"/>
<rect x="28" y="14" width="3" height="1"/>
<rect x="7" y="15" width="1" height="1"/>
<rect x="27" y="15" width="4" height="1"/>
<rect x="7" y="16" width="1" height="1"/>
<rect x="14" y="16" width="2" height="1"/>
<rect x="27" y="16" width="4" height="1"/>
<rect x="7" y="17" width="1" height="1"/>
<rect x="17" y="17" width="1" height="1"/>
<rect x="24" y="17" width="1" height="1"/>
<rect x="27" y="17" width="4" height="1"/>
<rect x="7" y="18" width="1" height="1"/>
<rect x="20" y="18" width="1" height="1"/>
<rect x="22" y="18" width="3" height="1"/>
<rect x="26" y="18" width="5" height="1"/>
<rect x="7" y="19" width="1" height="1"/>
<rect x="14" y="19" width="1" height="1"/>
<rect x="19" y="19" width="6" height="1"/>
<rect x="26" y="19" width="5" height="1"/>
<rect x="19" y="20" width="5" height="1"/>
<rect x="26" y="20" width="4" height="1"/>
<rect x="14" y="21" width="1" height="1"/>
<rect x="17" y="21" width="6" height="1"/>
<rect x="25" y="21" width="5" height="1"/>
<rect x="9" y="22" width="1" height="1"/>
<rect x="17" y="22" width="6" height="1"/>
<rect x="25" y="22" width="5" height="1"/>
<rect x="15" y="23" width="6" height="1"/>
<rect x="24" y="23" width="5" height="1"/>
<rect x="14" y="24" width="6" height="1"/>
<rect x="23" y="24" width="6" height="1"/>
<rect x="10" y="25" width="1" height="1"/>
<rect x="13" y="25" width="6" height="1"/>
<rect x="21" y="25" width="7" height="1"/>
<rect x="11" y="26" width="16" height="1"/>
<rect x="10" y="27" width="16" height="1"/>
<rect x="8" y="28" width="17" height="1"/>
<rect x="9" y="29" width="14" height="1"/>
<rect x="12" y="30" width="8" height="1"/>
</g>
<g fill="#3E73C4">
<rect x="24" y="4" width="2" height="1"/>
<rect x="23" y="5" width="4" height="1"/>
<rect x="21" y="6" width="7" height="1"/>
<rect x="23" y="7" width="6" height="1"/>
<rect x="18" y="8" width="3" height="1"/>
<rect x="24" y="8" width="5" height="1"/>
<rect x="17" y="9" width="5" height="1"/>
<rect x="25" y="9" width="5" height="1"/>
<rect x="18" y="10" width="5" height="1"/>
<rect x="26" y="10" width="4" height="1"/>
<rect x="18" y="11" width="6" height="1"/>
<rect x="26" y="11" width="4" height="1"/>
<rect x="19" y="12" width="6" height="1"/>
<rect x="27" y="12" width="4" height="1"/>
<rect x="11" y="13" width="1" height="1"/>
<rect x="15" y="13" width="4" height="1"/>
<rect x="20" y="13" width="5" height="1"/>
<rect x="27" y="13" width="2" height="1"/>
<rect x="10" y="14" width="2" height="1"/>
<rect x="15" y="14" width="10" height="1"/>
<rect x="27" y="14" width="1" height="1"/>
<rect x="9" y="15" width="4" height="1"/>
<rect x="18" y="15" width="7" height="1"/>
<rect x="8" y="16" width="6" height="1"/>
<rect x="19" y="16" width="6" height="1"/>
<rect x="8" y="17" width="9" height="1"/>
<rect x="20" y="17" width="4" height="1"/>
<rect x="4" y="18" width="2" height="1"/>
<rect x="8" y="18" width="4" height="1"/>
<rect x="14" y="18" width="4" height="1"/>
<rect x="21" y="18" width="1" height="1"/>
<rect x="3" y="19" width="3" height="1"/>
<rect x="8" y="19" width="4" height="1"/>
<rect x="15" y="19" width="3" height="1"/>
<rect x="2" y="20" width="4" height="1"/>
<rect x="8" y="20" width="5" height="1"/>
<rect x="2" y="21" width="5" height="1"/>
<rect x="9" y="21" width="5" height="1"/>
<rect x="2" y="22" width="5" height="1"/>
<rect x="10" y="22" width="5" height="1"/>
<rect x="3" y="23" width="5" height="1"/>
<rect x="11" y="23" width="4" height="1"/>
<rect x="3" y="24" width="6" height="1"/>
<rect x="12" y="24" width="2" height="1"/>
<rect x="4" y="25" width="6" height="1"/>
<rect x="5" y="26" width="6" height="1"/>
<rect x="6" y="27" width="4" height="1"/>
<rect x="7" y="28" width="1" height="1"/>
</g>
<g fill="#6F97D5">
<rect x="13" y="1" width="7" height="1"/>
<rect x="12" y="2" width="11" height="1"/>
<rect x="10" y="3" width="15" height="1"/>
<rect x="9" y="4" width="15" height="1"/>
<rect x="8" y="5" width="15" height="1"/>
<rect x="6" y="6" width="5" height="1"/>
<rect x="13" y="6" width="6" height="1"/>
<rect x="5" y="7" width="4" height="1"/>
<rect x="14" y="7" width="6" height="1"/>
<rect x="3" y="8" width="5" height="1"/>
<rect x="13" y="8" width="5" height="1"/>
<rect x="2" y="9" width="5" height="1"/>
<rect x="12" y="9" width="3" height="1"/>
<rect x="2" y="10" width="5" height="1"/>
<rect x="10" y="10" width="5" height="1"/>
<rect x="2" y="11" width="4" height="1"/>
<rect x="10" y="11" width="3" height="1"/>
<rect x="1" y="12" width="5" height="1"/>
<rect x="9" y="12" width="3" height="1"/>
<rect x="1" y="13" width="5" height="1"/>
<rect x="8" y="13" width="3" height="1"/>
<rect x="1" y="14" width="4" height="1"/>
<rect x="8" y="14" width="2" height="1"/>
<rect x="1" y="15" width="4" height="1"/>
<rect x="8" y="15" width="1" height="1"/>
<rect x="1" y="16" width="4" height="1"/>
<rect x="1" y="17" width="4" height="1"/>
<rect x="1" y="18" width="3" height="1"/>
<rect x="1" y="19" width="2" height="1"/>
</g>
<g fill="#AAC0E1">
<rect x="12" y="1" width="1" height="1"/>
<rect x="9" y="2" width="3" height="1"/>
<rect x="7" y="3" width="3" height="1"/>
<rect x="6" y="4" width="3" height="1"/>
<rect x="5" y="5" width="3" height="1"/>
<rect x="4" y="6" width="2" height="1"/>
<rect x="3" y="7" width="2" height="1"/>
</g>
<g fill="#FFFFFF">
<rect x="11" y="6" width="2" height="1"/>
<rect x="19" y="6" width="2" height="1"/>
<rect x="9" y="7" width="3" height="1"/>
<rect x="20" y="7" width="3" height="1"/>
<rect x="8" y="8" width="3" height="1"/>
<rect x="21" y="8" width="3" height="1"/>
<rect x="7" y="9" width="2" height="1"/>
<rect x="15" y="9" width="2" height="1"/>
<rect x="23" y="9" width="2" height="1"/>
<rect x="7" y="10" width="2" height="1"/>
<rect x="15" y="10" width="2" height="1"/>
<rect x="23" y="10" width="2" height="1"/>
<rect x="6" y="11" width="2" height="1"/>
<rect x="13" y="11" width="5" height="1"/>
<rect x="24" y="11" width="2" height="1"/>
<rect x="6" y="12" width="1" height="1"/>
<rect x="12" y="12" width="2" height="1"/>
<rect x="18" y="12" width="1" height="1"/>
<rect x="25" y="12" width="1" height="1"/>
<rect x="6" y="13" width="1" height="1"/>
<rect x="12" y="13" width="2" height="1"/>
<rect x="25" y="13" width="1" height="1"/>
<rect x="5" y="14" width="2" height="1"/>
<rect x="12" y="14" width="2" height="1"/>
<rect x="25" y="14" width="2" height="1"/>
<rect x="5" y="15" width="2" height="1"/>
<rect x="13" y="15" width="5" height="1"/>
<rect x="25" y="15" width="2" height="1"/>
<rect x="5" y="16" width="2" height="1"/>
<rect x="16" y="16" width="3" height="1"/>
<rect x="25" y="16" width="2" height="1"/>
<rect x="5" y="17" width="2" height="1"/>
<rect x="18" y="17" width="2" height="1"/>
<rect x="25" y="17" width="2" height="1"/>
<rect x="6" y="18" width="1" height="1"/>
<rect x="12" y="18" width="2" height="1"/>
<rect x="18" y="18" width="2" height="1"/>
<rect x="25" y="18" width="1" height="1"/>
<rect x="6" y="19" width="1" height="1"/>
<rect x="12" y="19" width="2" height="1"/>
<rect x="18" y="19" width="1" height="1"/>
<rect x="25" y="19" width="1" height="1"/>
<rect x="6" y="20" width="2" height="1"/>
<rect x="13" y="20" width="6" height="1"/>
<rect x="24" y="20" width="2" height="1"/>
<rect x="7" y="21" width="2" height="1"/>
<rect x="15" y="21" width="2" height="1"/>
<rect x="23" y="21" width="2" height="1"/>
<rect x="7" y="22" width="2" height="1"/>
<rect x="15" y="22" width="2" height="1"/>
<rect x="23" y="22" width="2" height="1"/>
<rect x="8" y="23" width="3" height="1"/>
<rect x="21" y="23" width="3" height="1"/>
<rect x="9" y="24" width="3" height="1"/>
<rect x="20" y="24" width="3" height="1"/>
<rect x="11" y="25" width="2" height="1"/>
<rect x="19" y="25" width="2" height="1"/>
</g>
</svg>