<svg xmlns="http://www.w3.org/2000/svg" xmlns:xlink="http://www.w3.org/1999/xlink" viewBox="0 0 512 192" width="100%" role="img" aria-label="Crossed swap animation: sealed orders unlock, XLM and USDC cross through the center X, swap sides, and match" shape-rendering="crispEdges">
  <style>
    rect{shape-rendering:crispEdges}
    text{font-family:ui-monospace,SFMono-Regular,Menlo,Consolas,monospace;font-weight:900}
    image{image-rendering:auto}
    #leftTrader{animation:trL 6s ease-in-out infinite;transform-box:fill-box;transform-origin:50% 100%}
    #rightTrader{animation:trR 6s ease-in-out infinite;transform-box:fill-box;transform-origin:50% 100%}
    #coinXLM{animation:xT 6s ease-in-out infinite}
    #coinUSDC{animation:uT 6s ease-in-out infinite}
    #coinXLM .coinFace,#coinUSDC .coinFace{animation:cFace 6s ease-in-out infinite;transform-box:fill-box;transform-origin:center}
    #crossX{animation:xPulse 6s ease-in-out infinite;transform-box:fill-box;transform-origin:center}
    #sparkA{animation:spkA 6s ease-in-out infinite;transform-box:fill-box;transform-origin:center}
    #sparkB{animation:spkB 6s ease-in-out infinite;transform-box:fill-box;transform-origin:center}
    #coinXLM .shine,#coinUSDC .shine{animation:coinShine 6s steps(8,end) infinite}
    #matchCheck{animation:checkIn 6s cubic-bezier(.2,1.4,.35,1) infinite;transform-box:fill-box;transform-origin:center}
    #lockL .body,#lockR .body{animation:lockBody 6s steps(10,end) infinite}
    #lockL .shackle{animation:shackleL 6s ease-in-out infinite;transform-box:fill-box;transform-origin:32px 30px}
    #lockR .shackle{animation:shackleR 6s ease-in-out infinite;transform-box:fill-box;transform-origin:18px 30px}
    #leftTicket .sealed,#rightTicket .sealed{animation:sealedPulse 6s steps(8,end) infinite}
    #leftTicket .matched,#rightTicket .matched{animation:ticketMatched 6s steps(6,end) infinite}

    @keyframes xT{0%,12%{transform:translate(0,0)}50%{transform:translate(150px,-46px)}88%,100%{transform:translate(282px,-42px)}}
    @keyframes uT{0%,12%{transform:translate(0,0)}50%{transform:translate(-150px,46px)}88%,100%{transform:translate(-282px,42px)}}
    @keyframes cFace{0%,100%{transform:translateY(0) scaleX(1)}30%{transform:translateY(-3px) scaleX(1)}50%{transform:translateY(-1px) scaleX(.2)}70%{transform:translateY(3px) scaleX(1)}}
    @keyframes trL{0%,100%{transform:translate(0,0) rotate(0)}25%{transform:translate(0,-1.5px) rotate(-1.6deg)}50%{transform:translate(0,0) rotate(0)}75%{transform:translate(0,-1.5px) rotate(1.6deg)}}
    @keyframes trR{0%,100%{transform:translate(0,0) rotate(0)}25%{transform:translate(0,-1.5px) rotate(1.6deg)}50%{transform:translate(0,0) rotate(0)}75%{transform:translate(0,-1.5px) rotate(-1.6deg)}}
    @keyframes xPulse{0%,30%{opacity:.55;transform:scale(1)}50%{opacity:1;transform:scale(1.12)}70%,100%{opacity:.75;transform:scale(1)}}
    @keyframes spkA{0%,38%{opacity:0;transform:scale(.6)}50%{opacity:.9;transform:scale(1.15)}64%,100%{opacity:0;transform:scale(.6)}}
    @keyframes spkB{0%,42%{opacity:0;transform:scale(.6)}54%{opacity:.9;transform:scale(1.1)}66%,100%{opacity:0;transform:scale(.6)}}
    @keyframes coinShine{0%,32%{opacity:.25}44%,58%{opacity:1}76%,100%{opacity:.45}}
    @keyframes checkIn{0%,58%{opacity:0;transform:translateY(8px) scale(.7)}68%,100%{opacity:1;transform:translateY(0) scale(1)}}
    @keyframes lockBody{0%,50%{transform:translateY(0)}55%{transform:translateY(-4px)}62%,100%{transform:translateY(0)}}
    @keyframes shackleL{0%,48%{transform:translate(0,0) rotate(0deg)}58%,100%{transform:translate(-4px,-16px) rotate(-18deg)}}
    @keyframes shackleR{0%,48%{transform:translate(0,0) rotate(0deg)}58%,100%{transform:translate(4px,-16px) rotate(18deg)}}
    @keyframes sealedPulse{0%,48%{opacity:1}58%,100%{opacity:.32}}
    @keyframes ticketMatched{0%,58%{opacity:0}68%,100%{opacity:1}}

    @media (prefers-reduced-motion:reduce){
      #leftTrader,#rightTrader,#coinXLM,#coinUSDC,#coinXLM .coinFace,#coinUSDC .coinFace,#coinXLM .shine,#coinUSDC .shine,#crossX,#sparkA,#sparkB,#matchCheck,#lockL .body,#lockR .body,#lockL .shackle,#lockR .shackle,#leftTicket .sealed,#rightTicket .sealed,#leftTicket .matched,#rightTicket .matched{animation:none}
      #coinXLM{transform:translate(282px,-42px)}#coinUSDC{transform:translate(-282px,42px)}
      #crossX{opacity:.82;transform:scale(1)}#sparkA,#sparkB{opacity:0}
      #matchCheck{opacity:1;transform:translateY(0) scale(1)}
      #lockL .shackle{transform:translate(-4px,-16px) rotate(-18deg)}#lockR .shackle{transform:translate(4px,-16px) rotate(18deg)}
      #leftTicket .sealed,#rightTicket .sealed{opacity:.32}#leftTicket .matched,#rightTicket .matched{opacity:1}}
  </style>

  <rect width="512" height="192" fill="#0B0E2A"/>
  <rect y="138" width="512" height="54" fill="#141A47"/>
  <rect y="136" width="512" height="4" fill="#7A5CFF"/>
  <rect x="0" y="0" width="512" height="6" fill="#141A47"/>
  <rect x="20" y="170" width="78" height="6" fill="#2BFF88"/>
  <rect x="414" y="170" width="78" height="6" fill="#2BFF88"/>
  <rect x="218" y="170" width="76" height="6" fill="#FFD23F"/>

  <g opacity=".32">
    <rect x="176" y="52" width="10" height="4" fill="#FFE98A"/>
    <rect x="190" y="52" width="18" height="4" fill="#FFE98A"/>
    <rect x="306" y="48" width="10" height="4" fill="#2CE8F5"/>
    <rect x="322" y="48" width="18" height="4" fill="#2CE8F5"/>
    <rect x="176" y="118" width="16" height="4" fill="#FF2E88"/>
    <rect x="318" y="116" width="18" height="4" fill="#2CE8F5"/>
    <rect x="236" y="34" width="8" height="8" fill="#7A5CFF"/>
    <rect x="270" y="34" width="8" height="8" fill="#7A5CFF"/>
  </g>

  <g id="leftTrader">
    <rect x="24" y="60" width="8" height="22" fill="#FDF6E3"/>
    <rect x="32" y="54" width="24" height="34" fill="#FDF6E3"/>
    <rect x="56" y="62" width="8" height="20" fill="#FDF6E3"/>
    <rect x="30" y="46" width="30" height="8" fill="#7A5CFF"/>
    <rect x="34" y="40" width="20" height="8" fill="#7A5CFF"/>
    <rect x="54" y="66" width="4" height="6" fill="#05060F"/>
    <rect x="40" y="82" width="18" height="4" fill="#FF2E88"/>
    <rect x="18" y="88" width="50" height="46" fill="#2CE8F5"/>
    <rect x="24" y="88" width="38" height="8" fill="#7A5CFF"/>
    <rect x="68" y="94" width="28" height="10" fill="#FDF6E3"/>
    <rect x="90" y="98" width="8" height="6" fill="#FFD23F"/>
    <rect x="20" y="134" width="14" height="30" fill="#05060F"/>
    <rect x="50" y="134" width="14" height="30" fill="#05060F"/>
    <rect x="18" y="164" width="22" height="6" fill="#7A5CFF"/>
    <rect x="48" y="164" width="22" height="6" fill="#7A5CFF"/>
  </g>

  <g id="rightTrader">
    <rect x="456" y="60" width="8" height="22" fill="#FDF6E3"/>
    <rect x="432" y="54" width="24" height="34" fill="#FDF6E3"/>
    <rect x="424" y="62" width="8" height="20" fill="#FDF6E3"/>
    <rect x="428" y="46" width="30" height="8" fill="#7A5CFF"/>
    <rect x="434" y="40" width="20" height="8" fill="#7A5CFF"/>
    <rect x="436" y="66" width="4" height="6" fill="#05060F"/>
    <rect x="432" y="82" width="18" height="4" fill="#FF2E88"/>
    <rect x="424" y="88" width="50" height="46" fill="#FF2E88"/>
    <rect x="430" y="88" width="38" height="8" fill="#7A5CFF"/>
    <rect x="396" y="94" width="28" height="10" fill="#FDF6E3"/>
    <rect x="394" y="98" width="8" height="6" fill="#FFD23F"/>
    <rect x="428" y="134" width="14" height="30" fill="#05060F"/>
    <rect x="458" y="134" width="14" height="30" fill="#05060F"/>
    <rect x="422" y="164" width="22" height="6" fill="#7A5CFF"/>
    <rect x="452" y="164" width="22" height="6" fill="#7A5CFF"/>
  </g>

  <g id="leftTicket">
    <rect x="86" y="24" width="84" height="46" fill="#1B2356"/>
    <rect x="86" y="24" width="84" height="8" fill="#FF2E88"/>
    <rect x="92" y="38" width="52" height="6" fill="#FDF6E3" opacity=".16"/>
    <rect x="92" y="50" width="20" height="6" fill="#FDF6E3" opacity=".18"/>
    <rect x="122" y="50" width="30" height="6" fill="#FDF6E3" opacity=".18"/>
    <text class="sealed" x="110" y="62" font-size="18" fill="#FDF6E3">?</text>
    <g class="matched">
      <rect x="146" y="48" width="6" height="6" fill="#2BFF88"/>
      <rect x="152" y="54" width="6" height="6" fill="#2BFF88"/>
      <rect x="158" y="42" width="6" height="6" fill="#2BFF88"/>
      <rect x="164" y="36" width="6" height="6" fill="#2BFF88"/>
    </g>
    <g id="lockL" transform="translate(104 4)">
      <g class="shackle">
        <rect x="10" y="0" width="28" height="6" fill="#FFD23F"/>
        <rect x="4" y="6" width="8" height="24" fill="#FFD23F"/>
        <rect x="36" y="6" width="8" height="24" fill="#FFD23F"/>
        <rect x="12" y="6" width="24" height="6" fill="#0B0E2A"/>
      </g>
      <g class="body">
        <rect x="0" y="28" width="50" height="30" fill="#FFD23F"/>
        <rect x="4" y="24" width="42" height="6" fill="#FFE98A"/>
        <rect x="18" y="40" width="12" height="10" fill="#05060F"/>
        <rect x="22" y="50" width="4" height="6" fill="#05060F"/>
      </g>
    </g>
  </g>

  <g id="rightTicket">
    <rect x="342" y="24" width="84" height="46" fill="#1B2356"/>
    <rect x="342" y="24" width="84" height="8" fill="#2CE8F5"/>
    <rect x="368" y="38" width="52" height="6" fill="#FDF6E3" opacity=".16"/>
    <rect x="360" y="50" width="22" height="6" fill="#FDF6E3" opacity=".18"/>
    <rect x="392" y="50" width="28" height="6" fill="#FDF6E3" opacity=".18"/>
    <text class="sealed" x="392" y="62" font-size="18" fill="#FDF6E3">?</text>
    <g class="matched">
      <rect x="348" y="48" width="6" height="6" fill="#2BFF88"/>
      <rect x="354" y="54" width="6" height="6" fill="#2BFF88"/>
      <rect x="360" y="42" width="6" height="6" fill="#2BFF88"/>
      <rect x="366" y="36" width="6" height="6" fill="#2BFF88"/>
    </g>
    <g id="lockR" transform="translate(358 4)">
      <g class="shackle">
        <rect x="10" y="0" width="28" height="6" fill="#FFD23F"/>
        <rect x="4" y="6" width="8" height="24" fill="#FFD23F"/>
        <rect x="36" y="6" width="8" height="24" fill="#FFD23F"/>
        <rect x="12" y="6" width="24" height="6" fill="#0B0E2A"/>
      </g>
      <g class="body">
        <rect x="0" y="28" width="50" height="30" fill="#FFD23F"/>
        <rect x="4" y="24" width="42" height="6" fill="#FFE98A"/>
        <rect x="20" y="40" width="12" height="10" fill="#05060F"/>
        <rect x="24" y="50" width="4" height="6" fill="#05060F"/>
      </g>
    </g>
  </g>

  <g id="crossX">
    <rect x="222" y="48" width="14" height="10" fill="#7A5CFF"/>
    <rect x="276" y="48" width="14" height="10" fill="#7A5CFF"/>
    <rect x="234" y="58" width="14" height="10" fill="#FFD23F"/>
    <rect x="264" y="58" width="14" height="10" fill="#FFD23F"/>
    <rect x="246" y="68" width="20" height="10" fill="#2BFF88"/>
    <rect x="250" y="78" width="12" height="10" fill="#2BFF88"/>
    <rect x="250" y="88" width="12" height="14" fill="#2CE8F5"/>
    <rect x="246" y="102" width="20" height="10" fill="#2BFF88"/>
    <rect x="234" y="112" width="14" height="10" fill="#FFD23F"/>
    <rect x="264" y="112" width="14" height="10" fill="#FFD23F"/>
    <rect x="222" y="122" width="14" height="10" fill="#7A5CFF"/>
    <rect x="276" y="122" width="14" height="10" fill="#7A5CFF"/>
    <rect x="238" y="78" width="10" height="8" fill="#FF2E88"/>
    <rect x="264" y="94" width="10" height="8" fill="#FF2E88"/>
  </g>

  <g id="sparkA">
    <rect x="210" y="82" width="8" height="8" fill="#FDF6E3"/>
    <rect x="204" y="88" width="20" height="4" fill="#FDF6E3"/>
    <rect x="212" y="76" width="4" height="20" fill="#FDF6E3"/>
  </g>
  <g id="sparkB">
    <rect x="294" y="92" width="8" height="8" fill="#FDF6E3"/>
    <rect x="288" y="98" width="20" height="4" fill="#FDF6E3"/>
    <rect x="296" y="86" width="4" height="20" fill="#FDF6E3"/>
  </g>

  <g id="coinXLM">
   <g transform="translate(92 104)">
    <g class="coinFace">
      <image href="/assets/tokens/xlm-coin32.svg" xlink:href="/assets/tokens/xlm-coin32.svg" x="0" y="0" width="48" height="48" style="image-rendering:pixelated"/>
    </g>
   </g>
  </g>

  <g id="coinUSDC">
   <g transform="translate(372 58)">
    <g class="coinFace">
      <image href="/assets/tokens/usdc-coin32.svg" xlink:href="/assets/tokens/usdc-coin32.svg" x="0" y="0" width="48" height="48" style="image-rendering:pixelated"/>
    </g>
   </g>
  </g>

  <g id="matchCheck">
    <rect x="226" y="18" width="14" height="14" fill="#2BFF88"/>
    <rect x="240" y="32" width="14" height="14" fill="#2BFF88"/>
    <rect x="254" y="46" width="14" height="14" fill="#2BFF88"/>
    <rect x="268" y="32" width="14" height="14" fill="#2BFF88"/>
    <rect x="282" y="18" width="14" height="14" fill="#2BFF88"/>
    <rect x="226" y="32" width="14" height="6" fill="#05060F" opacity=".24"/>
    <rect x="240" y="46" width="14" height="6" fill="#05060F" opacity=".24"/>
    <rect x="254" y="60" width="14" height="6" fill="#05060F" opacity=".24"/>
  </g>
</svg>