<svg xmlns="http://www.w3.org/2000/svg" viewBox="0 0 24 24" width="24" height="24" shape-rendering="crispEdges" role="img" aria-label="Hourglass">
<g fill="#05060F">
<rect x="4" y="2" width="16" height="1"/>
<rect x="4" y="3" width="1" height="1"/>
<rect x="19" y="3" width="1" height="1"/>
<rect x="4" y="4" width="1" height="1"/>
<rect x="19" y="4" width="1" height="1"/>
<rect x="4" y="5" width="2" height="1"/>
<rect x="18" y="5" width="2" height="1"/>
<rect x="5" y="6" width="2" height="1"/>
<rect x="17" y="6" width="2" height="1"/>
<rect x="6" y="7" width="2" height="1"/>
<rect x="16" y="7" width="2" height="1"/>
<rect x="7" y="8" width="2" height="1"/>
<rect x="15" y="8" width="2" height="1"/>
<rect x="8" y="9" width="2" height="1"/>
<rect x="14" y="9" width="2" height="1"/>
<rect x="9" y="10" width="2" height="1"/>
<rect x="13" y="10" width="2" height="1"/>
<rect x="10" y="11" width="1" height="1"/>
<rect x="13" y="11" width="1" height="1"/>
<rect x="10" y="12" width="1" height="1"/>
<rect x="13" y="12" width="1" height="1"/>
<rect x="9" y="13" width="2" height="1"/>
<rect x="13" y="13" width="2" height="1"/>
<rect x="8" y="14" width="2" height="1"/>
<rect x="14" y="14" width="2" height="1"/>
<rect x="7" y="15" width="2" height="1"/>
<rect x="15" y="15" width="2" height="1"/>
<rect x="6" y="16" width="2" height="1"/>
<rect x="16" y="16" width="2" height="1"/>
<rect x="5" y="17" width="2" height="1"/>
<rect x="17" y="17" width="2" height="1"/>
<rect x="4" y="18" width="2" height="1"/>
<rect x="18" y="18" width="2" height="1"/>
<rect x="4" y="19" width="1" height="1"/>
<rect x="19" y="19" width="1" height="1"/>
<rect x="4" y="20" width="1" height="1"/>
<rect x="19" y="20" width="1" height="1"/>
<rect x="4" y="21" width="16" height="1"/>
</g>
<g fill="#FDF6E3">
<rect x="5" y="3" width="14" height="1"/>
<rect x="5" y="4" width="14" height="1"/>
<rect x="5" y="19" width="14" height="1"/>
<rect x="5" y="20" width="14" height="1"/>
</g>
<g fill="#2CE8F5">
<rect x="6" y="5" width="12" height="1"/>
<rect x="7" y="6" width="10" height="1"/>
<rect x="8" y="7" width="8" height="1"/>
<rect x="9" y="8" width="6" height="1"/>
<rect x="10" y="9" width="4" height="1"/>
<rect x="11" y="10" width="2" height="1"/>
</g>
<g fill="#FF2E88">
<rect x="11" y="11" width="2" height="1"/>
<rect x="11" y="12" width="2" height="1"/>
</g>
<g fill="#FFD23F">
<rect x="11" y="13" width="2" height="1"/>
<rect x="10" y="14" width="4" height="1"/>
<rect x="9" y="15" width="6" height="1"/>
<rect x="8" y="16" width="8" height="1"/>
<rect x="7" y="17" width="10" height="1"/>
<rect x="6" y="18" width="12" height="1"/>
</g>
</svg>