<svg xmlns="http://www.w3.org/2000/svg" viewBox="0 0 24 24" width="24" height="24" shape-rendering="crispEdges" role="img" aria-label="Crossed Arrows">
<g fill="#05060F">
<rect x="16" y="3" width="4" height="1"/>
<rect x="3" y="4" width="4" height="1"/>
<rect x="14" y="4" width="3" height="1"/>
<rect x="19" y="4" width="1" height="1"/>
<rect x="3" y="5" width="1" height="1"/>
<rect x="6" y="5" width="2" height="1"/>
<rect x="14" y="5" width="1" height="1"/>
<rect x="19" y="5" width="1" height="1"/>
<rect x="3" y="6" width="1" height="1"/>
<rect x="7" y="6" width="2" height="1"/>
<rect x="13" y="6" width="2" height="1"/>
<rect x="19" y="6" width="1" height="1"/>
<rect x="3" y="7" width="2" height="1"/>
<rect x="8" y="7" width="2" height="1"/>
<rect x="12" y="7" width="2" height="1"/>
<rect x="17" y="7" width="1" height="1"/>
<rect x="19" y="7" width="1" height="1"/>
<rect x="4" y="8" width="2" height="1"/>
<rect x="9" y="8" width="4" height="1"/>
<rect x="16" y="8" width="2" height="1"/>
<rect x="19" y="8" width="1" height="1"/>
<rect x="5" y="9" width="2" height="1"/>
<rect x="10" y="9" width="2" height="1"/>
<rect x="15" y="9" width="5" height="1"/>
<rect x="6" y="10" width="2" height="1"/>
<rect x="14" y="10" width="2" height="1"/>
<rect x="7" y="11" width="2" height="1"/>
<rect x="13" y="11" width="2" height="1"/>
<rect x="7" y="12" width="2" height="1"/>
<rect x="13" y="12" width="2" height="1"/>
<rect x="6" y="13" width="2" height="1"/>
<rect x="14" y="13" width="2" height="1"/>
<rect x="5" y="14" width="2" height="1"/>
<rect x="10" y="14" width="2" height="1"/>
<rect x="15" y="14" width="2" height="1"/>
<rect x="4" y="15" width="2" height="1"/>
<rect x="9" y="15" width="4" height="1"/>
<rect x="16" y="15" width="4" height="1"/>
<rect x="3" y="16" width="2" height="1"/>
<rect x="8" y="16" width="2" height="1"/>
<rect x="12" y="16" width="2" height="1"/>
<rect x="17" y="16" width="1" height="1"/>
<rect x="19" y="16" width="1" height="1"/>
<rect x="3" y="17" width="1" height="1"/>
<rect x="7" y="17" width="2" height="1"/>
<rect x="13" y="17" width="2" height="1"/>
<rect x="19" y="17" width="1" height="1"/>
<rect x="3" y="18" width="1" height="1"/>
<rect x="6" y="18" width="2" height="1"/>
<rect x="14" y="18" width="2" height="1"/>
<rect x="19" y="18" width="1" height="1"/>
<rect x="3" y="19" width="4" height="1"/>
<rect x="14" y="19" width="1" height="1"/>
<rect x="19" y="19" width="1" height="1"/>
<rect x="14" y="20" width="6" height="1"/>
</g>
<g fill="#FFD23F">
<rect x="17" y="4" width="2" height="1"/>
<rect x="15" y="5" width="4" height="1"/>
<rect x="15" y="6" width="4" height="1"/>
<rect x="14" y="7" width="3" height="1"/>
<rect x="18" y="7" width="1" height="1"/>
<rect x="13" y="8" width="3" height="1"/>
<rect x="18" y="8" width="1" height="1"/>
<rect x="12" y="9" width="3" height="1"/>
<rect x="11" y="10" width="3" height="1"/>
<rect x="12" y="11" width="1" height="1"/>
<rect x="9" y="12" width="1" height="1"/>
<rect x="8" y="13" width="3" height="1"/>
<rect x="7" y="14" width="3" height="1"/>
<rect x="6" y="15" width="3" height="1"/>
<rect x="5" y="16" width="3" height="1"/>
<rect x="4" y="17" width="3" height="1"/>
<rect x="4" y="18" width="2" height="1"/>
</g>
<g fill="#2CE8F5">
<rect x="4" y="5" width="2" height="1"/>
<rect x="4" y="6" width="3" height="1"/>
<rect x="5" y="7" width="3" height="1"/>
<rect x="6" y="8" width="3" height="1"/>
<rect x="7" y="9" width="3" height="1"/>
<rect x="8" y="10" width="3" height="1"/>
<rect x="9" y="11" width="3" height="1"/>
<rect x="10" y="12" width="3" height="1"/>
<rect x="11" y="13" width="3" height="1"/>
<rect x="12" y="14" width="3" height="1"/>
<rect x="13" y="15" width="3" height="1"/>
<rect x="14" y="16" width="3" height="1"/>
<rect x="18" y="16" width="1" height="1"/>
<rect x="15" y="17" width="4" height="1"/>
<rect x="16" y="18" width="3" height="1"/>
<rect x="15" y="19" width="4" height="1"/>
</g>
</svg>