<svg xmlns="http://www.w3.org/2000/svg" viewBox="0 0 24 24" width="24" height="24" shape-rendering="crispEdges" role="img" aria-label="Crosshair">
<g fill="#05060F">
<rect x="7" y="1" width="10" height="1"/>
<rect x="5" y="2" width="3" height="1"/>
<rect x="16" y="2" width="3" height="1"/>
<rect x="4" y="3" width="2" height="1"/>
<rect x="18" y="3" width="2" height="1"/>
<rect x="3" y="4" width="2" height="1"/>
<rect x="8" y="4" width="3" height="1"/>
<rect x="13" y="4" width="3" height="1"/>
<rect x="19" y="4" width="2" height="1"/>
<rect x="2" y="5" width="2" height="1"/>
<rect x="7" y="5" width="2" height="1"/>
<rect x="10" y="5" width="1" height="1"/>
<rect x="13" y="5" width="1" height="1"/>
<rect x="15" y="5" width="2" height="1"/>
<rect x="20" y="5" width="2" height="1"/>
<rect x="2" y="6" width="1" height="1"/>
<rect x="6" y="6" width="2" height="1"/>
<rect x="10" y="6" width="1" height="1"/>
<rect x="13" y="6" width="1" height="1"/>
<rect x="16" y="6" width="2" height="1"/>
<rect x="21" y="6" width="1" height="1"/>
<rect x="1" y="7" width="2" height="1"/>
<rect x="5" y="7" width="2" height="1"/>
<rect x="10" y="7" width="1" height="1"/>
<rect x="13" y="7" width="1" height="1"/>
<rect x="17" y="7" width="2" height="1"/>
<rect x="21" y="7" width="2" height="1"/>
<rect x="1" y="8" width="1" height="1"/>
<rect x="4" y="8" width="2" height="1"/>
<rect x="10" y="8" width="1" height="1"/>
<rect x="13" y="8" width="1" height="1"/>
<rect x="18" y="8" width="2" height="1"/>
<rect x="22" y="8" width="1" height="1"/>
<rect x="1" y="9" width="1" height="1"/>
<rect x="4" y="9" width="1" height="1"/>
<rect x="9" y="9" width="6" height="1"/>
<rect x="19" y="9" width="1" height="1"/>
<rect x="22" y="9" width="1" height="1"/>
<rect x="1" y="10" width="1" height="1"/>
<rect x="4" y="10" width="6" height="1"/>
<rect x="14" y="10" width="6" height="1"/>
<rect x="22" y="10" width="1" height="1"/>
<rect x="1" y="11" width="1" height="1"/>
<rect x="9" y="11" width="1" height="1"/>
<rect x="14" y="11" width="1" height="1"/>
<rect x="22" y="11" width="1" height="1"/>
<rect x="1" y="12" width="1" height="1"/>
<rect x="9" y="12" width="1" height="1"/>
<rect x="14" y="12" width="1" height="1"/>
<rect x="22" y="12" width="1" height="1"/>
<rect x="1" y="13" width="1" height="1"/>
<rect x="4" y="13" width="6" height="1"/>
<rect x="14" y="13" width="6" height="1"/>
<rect x="22" y="13" width="1" height="1"/>
<rect x="1" y="14" width="1" height="1"/>
<rect x="4" y="14" width="1" height="1"/>
<rect x="9" y="14" width="6" height="1"/>
<rect x="19" y="14" width="1" height="1"/>
<rect x="22" y="14" width="1" height="1"/>
<rect x="1" y="15" width="1" height="1"/>
<rect x="4" y="15" width="2" height="1"/>
<rect x="10" y="15" width="1" height="1"/>
<rect x="13" y="15" width="1" height="1"/>
<rect x="18" y="15" width="2" height="1"/>
<rect x="22" y="15" width="1" height="1"/>
<rect x="1" y="16" width="2" height="1"/>
<rect x="5" y="16" width="2" height="1"/>
<rect x="10" y="16" width="1" height="1"/>
<rect x="13" y="16" width="1" height="1"/>
<rect x="17" y="16" width="2" height="1"/>
<rect x="21" y="16" width="2" height="1"/>
<rect x="2" y="17" width="1" height="1"/>
<rect x="6" y="17" width="2" height="1"/>
<rect x="10" y="17" width="1" height="1"/>
<rect x="13" y="17" width="1" height="1"/>
<rect x="16" y="17" width="2" height="1"/>
<rect x="21" y="17" width="1" height="1"/>
<rect x="2" y="18" width="2" height="1"/>
<rect x="7" y="18" width="2" height="1"/>
<rect x="10" y="18" width="1" height="1"/>
<rect x="13" y="18" width="1" height="1"/>
<rect x="15" y="18" width="2" height="1"/>
<rect x="20" y="18" width="2" height="1"/>
<rect x="3" y="19" width="2" height="1"/>
<rect x="8" y="19" width="3" height="1"/>
<rect x="13" y="19" width="3" height="1"/>
<rect x="19" y="19" width="2" height="1"/>
<rect x="4" y="20" width="2" height="1"/>
<rect x="18" y="20" width="2" height="1"/>
<rect x="5" y="21" width="3" height="1"/>
<rect x="16" y="21" width="3" height="1"/>
<rect x="7" y="22" width="10" height="1"/>
</g>
<g fill="#FFD23F">
<rect x="8" y="2" width="3" height="1"/>
<rect x="13" y="2" width="3" height="1"/>
<rect x="6" y="3" width="5" height="1"/>
<rect x="13" y="3" width="5" height="1"/>
<rect x="5" y="4" width="3" height="1"/>
<rect x="16" y="4" width="3" height="1"/>
<rect x="4" y="5" width="3" height="1"/>
<rect x="17" y="5" width="3" height="1"/>
<rect x="3" y="6" width="3" height="1"/>
<rect x="18" y="6" width="3" height="1"/>
<rect x="3" y="7" width="2" height="1"/>
<rect x="19" y="7" width="2" height="1"/>
<rect x="2" y="8" width="2" height="1"/>
<rect x="20" y="8" width="2" height="1"/>
<rect x="2" y="9" width="2" height="1"/>
<rect x="20" y="9" width="2" height="1"/>
<rect x="2" y="10" width="2" height="1"/>
<rect x="20" y="10" width="2" height="1"/>
<rect x="2" y="13" width="2" height="1"/>
<rect x="20" y="13" width="2" height="1"/>
<rect x="2" y="14" width="2" height="1"/>
<rect x="20" y="14" width="2" height="1"/>
<rect x="2" y="15" width="2" height="1"/>
<rect x="20" y="15" width="2" height="1"/>
<rect x="3" y="16" width="2" height="1"/>
<rect x="19" y="16" width="2" height="1"/>
<rect x="3" y="17" width="3" height="1"/>
<rect x="18" y="17" width="3" height="1"/>
<rect x="4" y="18" width="3" height="1"/>
<rect x="17" y="18" width="3" height="1"/>
<rect x="5" y="19" width="3" height="1"/>
<rect x="16" y="19" width="3" height="1"/>
<rect x="6" y="20" width="5" height="1"/>
<rect x="13" y="20" width="5" height="1"/>
<rect x="8" y="21" width="3" height="1"/>
<rect x="13" y="21" width="3" height="1"/>
</g>
<g fill="#2CE8F5">
<rect x="11" y="2" width="2" height="1"/>
<rect x="11" y="3" width="2" height="1"/>
<rect x="11" y="4" width="2" height="1"/>
<rect x="11" y="5" width="2" height="1"/>
<rect x="11" y="6" width="2" height="1"/>
<rect x="11" y="7" width="2" height="1"/>
<rect x="11" y="8" width="2" height="1"/>
<rect x="2" y="11" width="7" height="1"/>
<rect x="15" y="11" width="7" height="1"/>
<rect x="2" y="12" width="7" height="1"/>
<rect x="15" y="12" width="7" height="1"/>
<rect x="11" y="15" width="2" height="1"/>
<rect x="11" y="16" width="2" height="1"/>
<rect x="11" y="17" width="2" height="1"/>
<rect x="11" y="18" width="2" height="1"/>
<rect x="11" y="19" width="2" height="1"/>
<rect x="11" y="20" width="2" height="1"/>
<rect x="11" y="21" width="2" height="1"/>
</g>
<g fill="#FDF6E3">
<rect x="10" y="10" width="4" height="1"/>
<rect x="10" y="11" width="4" height="1"/>
<rect x="10" y="12" width="4" height="1"/>
<rect x="10" y="13" width="4" height="1"/>
</g>
</svg>