<svg xmlns="http://www.w3.org/2000/svg" viewBox="0 0 24 24" width="24" height="24" shape-rendering="crispEdges" role="img" aria-label="Bold Link">
<g fill="#05060F">
<rect x="7" y="4" width="3" height="1"/>
<rect x="14" y="4" width="3" height="1"/>
<rect x="4" y="5" width="4" height="1"/>
<rect x="9" y="5" width="6" height="1"/>
<rect x="16" y="5" width="4" height="1"/>
<rect x="3" y="6" width="2" height="1"/>
<rect x="12" y="6" width="2" height="1"/>
<rect x="19" y="6" width="2" height="1"/>
<rect x="2" y="7" width="2" height="1"/>
<rect x="13" y="7" width="2" height="1"/>
<rect x="20" y="7" width="2" height="1"/>
<rect x="1" y="8" width="2" height="1"/>
<rect x="8" y="8" width="1" height="1"/>
<rect x="14" y="8" width="2" height="1"/>
<rect x="21" y="8" width="2" height="1"/>
<rect x="1" y="9" width="1" height="1"/>
<rect x="6" y="9" width="5" height="1"/>
<rect x="15" y="9" width="3" height="1"/>
<rect x="22" y="9" width="1" height="1"/>
<rect x="1" y="10" width="1" height="1"/>
<rect x="5" y="10" width="2" height="1"/>
<rect x="8" y="10" width="1" height="1"/>
<rect x="10" y="10" width="2" height="1"/>
<rect x="15" y="10" width="1" height="1"/>
<rect x="17" y="10" width="2" height="1"/>
<rect x="22" y="10" width="1" height="1"/>
<rect x="0" y="11" width="2" height="1"/>
<rect x="5" y="11" width="1" height="1"/>
<rect x="7" y="11" width="2" height="1"/>
<rect x="11" y="11" width="1" height="1"/>
<rect x="15" y="11" width="2" height="1"/>
<rect x="18" y="11" width="1" height="1"/>
<rect x="22" y="11" width="2" height="1"/>
<rect x="0" y="12" width="1" height="1"/>
<rect x="4" y="12" width="2" height="1"/>
<rect x="7" y="12" width="1" height="1"/>
<rect x="11" y="12" width="2" height="1"/>
<rect x="16" y="12" width="1" height="1"/>
<rect x="18" y="12" width="2" height="1"/>
<rect x="23" y="12" width="1" height="1"/>
<rect x="0" y="13" width="2" height="1"/>
<rect x="5" y="13" width="1" height="1"/>
<rect x="7" y="13" width="2" height="1"/>
<rect x="12" y="13" width="1" height="1"/>
<rect x="15" y="13" width="2" height="1"/>
<rect x="18" y="13" width="1" height="1"/>
<rect x="22" y="13" width="2" height="1"/>
<rect x="1" y="14" width="1" height="1"/>
<rect x="5" y="14" width="2" height="1"/>
<rect x="8" y="14" width="1" height="1"/>
<rect x="12" y="14" width="2" height="1"/>
<rect x="15" y="14" width="1" height="1"/>
<rect x="17" y="14" width="2" height="1"/>
<rect x="22" y="14" width="1" height="1"/>
<rect x="1" y="15" width="1" height="1"/>
<rect x="6" y="15" width="3" height="1"/>
<rect x="13" y="15" width="5" height="1"/>
<rect x="22" y="15" width="1" height="1"/>
<rect x="1" y="16" width="2" height="1"/>
<rect x="8" y="16" width="2" height="1"/>
<rect x="15" y="16" width="1" height="1"/>
<rect x="21" y="16" width="2" height="1"/>
<rect x="2" y="17" width="2" height="1"/>
<rect x="9" y="17" width="2" height="1"/>
<rect x="20" y="17" width="2" height="1"/>
<rect x="3" y="18" width="2" height="1"/>
<rect x="10" y="18" width="2" height="1"/>
<rect x="19" y="18" width="2" height="1"/>
<rect x="4" y="19" width="4" height="1"/>
<rect x="9" y="19" width="6" height="1"/>
<rect x="16" y="19" width="4" height="1"/>
<rect x="7" y="20" width="3" height="1"/>
<rect x="14" y="20" width="3" height="1"/>
</g>
<g fill="#FFD23F">
<rect x="8" y="5" width="1" height="1"/>
<rect x="5" y="6" width="7" height="1"/>
<rect x="4" y="7" width="9" height="1"/>
<rect x="3" y="8" width="5" height="1"/>
<rect x="9" y="8" width="5" height="1"/>
<rect x="2" y="9" width="4" height="1"/>
<rect x="11" y="9" width="4" height="1"/>
<rect x="2" y="10" width="3" height="1"/>
<rect x="12" y="10" width="3" height="1"/>
<rect x="2" y="11" width="3" height="1"/>
<rect x="12" y="11" width="3" height="1"/>
<rect x="1" y="12" width="3" height="1"/>
<rect x="13" y="12" width="3" height="1"/>
<rect x="2" y="13" width="3" height="1"/>
<rect x="13" y="13" width="2" height="1"/>
<rect x="2" y="14" width="3" height="1"/>
<rect x="14" y="14" width="1" height="1"/>
<rect x="2" y="15" width="4" height="1"/>
<rect x="3" y="16" width="5" height="1"/>
<rect x="4" y="17" width="5" height="1"/>
<rect x="5" y="18" width="5" height="1"/>
<rect x="8" y="19" width="1" height="1"/>
</g>
<g fill="#2CE8F5">
<rect x="15" y="5" width="1" height="1"/>
<rect x="14" y="6" width="5" height="1"/>
<rect x="15" y="7" width="5" height="1"/>
<rect x="16" y="8" width="5" height="1"/>
<rect x="18" y="9" width="4" height="1"/>
<rect x="9" y="10" width="1" height="1"/>
<rect x="19" y="10" width="3" height="1"/>
<rect x="9" y="11" width="2" height="1"/>
<rect x="19" y="11" width="3" height="1"/>
<rect x="8" y="12" width="3" height="1"/>
<rect x="20" y="12" width="3" height="1"/>
<rect x="9" y="13" width="3" height="1"/>
<rect x="19" y="13" width="3" height="1"/>
<rect x="9" y="14" width="3" height="1"/>
<rect x="19" y="14" width="3" height="1"/>
<rect x="9" y="15" width="4" height="1"/>
<rect x="18" y="15" width="4" height="1"/>
<rect x="10" y="16" width="5" height="1"/>
<rect x="16" y="16" width="5" height="1"/>
<rect x="11" y="17" width="9" height="1"/>
<rect x="12" y="18" width="7" height="1"/>
<rect x="15" y="19" width="1" height="1"/>
</g>
</svg>