<svg xmlns="http://www.w3.org/2000/svg" viewBox="0 0 24 24" width="24" height="24" shape-rendering="crispEdges" role="img" aria-label="Crossing Coins">
<g fill="#05060F">
<rect x="3" y="2" width="8" height="1"/>
<rect x="2" y="3" width="2" height="1"/>
<rect x="10" y="3" width="2" height="1"/>
<rect x="2" y="4" width="1" height="1"/>
<rect x="11" y="4" width="1" height="1"/>
<rect x="2" y="5" width="1" height="1"/>
<rect x="11" y="5" width="1" height="1"/>
<rect x="2" y="6" width="1" height="1"/>
<rect x="11" y="6" width="1" height="1"/>
<rect x="2" y="7" width="1" height="1"/>
<rect x="11" y="7" width="3" height="1"/>
<rect x="2" y="8" width="1" height="1"/>
<rect x="13" y="8" width="1" height="1"/>
<rect x="2" y="9" width="1" height="1"/>
<rect x="13" y="9" width="1" height="1"/>
<rect x="2" y="10" width="2" height="1"/>
<rect x="13" y="10" width="4" height="1"/>
<rect x="3" y="11" width="5" height="1"/>
<rect x="16" y="11" width="1" height="1"/>
<rect x="7" y="12" width="1" height="1"/>
<rect x="16" y="12" width="1" height="1"/>
<rect x="7" y="13" width="4" height="1"/>
<rect x="14" y="13" width="8" height="1"/>
<rect x="10" y="14" width="1" height="1"/>
<rect x="13" y="14" width="1" height="1"/>
<rect x="21" y="14" width="2" height="1"/>
<rect x="10" y="15" width="1" height="1"/>
<rect x="13" y="15" width="1" height="1"/>
<rect x="22" y="15" width="1" height="1"/>
<rect x="10" y="16" width="4" height="1"/>
<rect x="22" y="16" width="1" height="1"/>
<rect x="13" y="17" width="1" height="1"/>
<rect x="22" y="17" width="1" height="1"/>
<rect x="13" y="18" width="1" height="1"/>
<rect x="22" y="18" width="1" height="1"/>
<rect x="13" y="19" width="1" height="1"/>
<rect x="22" y="19" width="1" height="1"/>
<rect x="13" y="20" width="1" height="1"/>
<rect x="22" y="20" width="1" height="1"/>
<rect x="13" y="21" width="2" height="1"/>
<rect x="21" y="21" width="2" height="1"/>
<rect x="14" y="22" width="8" height="1"/>
</g>
<g fill="#FFD23F">
<rect x="4" y="3" width="6" height="1"/>
<rect x="3" y="4" width="8" height="1"/>
<rect x="3" y="5" width="8" height="1"/>
<rect x="3" y="6" width="8" height="1"/>
<rect x="3" y="7" width="8" height="1"/>
<rect x="3" y="8" width="8" height="1"/>
<rect x="3" y="9" width="6" height="1"/>
<rect x="10" y="9" width="1" height="1"/>
<rect x="4" y="10" width="6" height="1"/>
</g>
<g fill="#FDF6E3">
<rect x="11" y="8" width="2" height="1"/>
<rect x="9" y="9" width="1" height="1"/>
<rect x="11" y="9" width="2" height="1"/>
<rect x="10" y="10" width="3" height="1"/>
<rect x="8" y="11" width="8" height="1"/>
<rect x="8" y="12" width="8" height="1"/>
<rect x="11" y="13" width="3" height="1"/>
<rect x="11" y="14" width="2" height="1"/>
<rect x="14" y="14" width="1" height="1"/>
<rect x="11" y="15" width="2" height="1"/>
</g>
<g fill="#2CE8F5">
<rect x="15" y="14" width="6" height="1"/>
<rect x="14" y="15" width="8" height="1"/>
<rect x="14" y="16" width="8" height="1"/>
<rect x="14" y="17" width="8" height="1"/>
<rect x="14" y="18" width="8" height="1"/>
<rect x="14" y="19" width="8" height="1"/>
<rect x="14" y="20" width="8" height="1"/>
<rect x="15" y="21" width="6" height="1"/>
</g>
</svg>