<svg xmlns="http://www.w3.org/2000/svg" viewBox="0 0 24 24" width="24" height="24" shape-rendering="crispEdges" role="img" aria-label="Crossed">
<g fill="#05060F"><rect x="8" y="2" width="3" height="1"/><rect x="5" y="3" width="4" height="1"/><rect x="10" y="3" width="4" height="1"/><rect x="4" y="4" width="2" height="1"/><rect x="13" y="4" width="2" height="1"/><rect x="3" y="5" width="2" height="1"/><rect x="9" y="5" width="1" height="1"/><rect x="14" y="5" width="2" height="1"/><rect x="3" y="6" width="1" height="1"/><rect x="7" y="6" width="5" height="1"/><rect x="15" y="6" width="1" height="1"/><rect x="3" y="7" width="1" height="1"/><rect x="6" y="7" width="2" height="1"/><rect x="11" y="7" width="2" height="1"/><rect x="15" y="7" width="1" height="1"/><rect x="2" y="8" width="2" height="1"/><rect x="6" y="8" width="1" height="1"/><rect x="12" y="8" width="1" height="1"/><rect x="15" y="8" width="2" height="1"/><rect x="2" y="9" width="1" height="1"/><rect x="5" y="9" width="2" height="1"/><rect x="11" y="9" width="3" height="1"/><rect x="16" y="9" width="4" height="1"/><rect x="2" y="10" width="2" height="1"/><rect x="6" y="10" width="1" height="1"/><rect x="10" y="10" width="3" height="1"/><rect x="15" y="10" width="2" height="1"/><rect x="19" y="10" width="2" height="1"/><rect x="3" y="11" width="1" height="1"/><rect x="6" y="11" width="2" height="1"/><rect x="9" y="11" width="4" height="1"/><rect x="15" y="11" width="1" height="1"/><rect x="20" y="11" width="2" height="1"/><rect x="3" y="12" width="1" height="1"/><rect x="7" y="12" width="5" height="1"/><rect x="15" y="12" width="3" height="1"/><rect x="21" y="12" width="1" height="1"/><rect x="3" y="13" width="2" height="1"/><rect x="9" y="13" width="1" height="1"/><rect x="12" y="13" width="4" height="1"/><rect x="17" y="13" width="2" height="1"/><rect x="21" y="13" width="1" height="1"/><rect x="4" y="14" width="2" height="1"/><rect x="8" y="14" width="2" height="1"/><rect x="12" y="14" width="3" height="1"/><rect x="18" y="14" width="1" height="1"/><rect x="21" y="14" width="2" height="1"/><rect x="5" y="15" width="4" height="1"/><rect x="11" y="15" width="3" height="1"/><rect x="18" y="15" width="2" height="1"/><rect x="22" y="15" width="1" height="1"/><rect x="8" y="16" width="2" height="1"/><rect x="12" y="16" width="1" height="1"/><rect x="18" y="16" width="1" height="1"/><rect x="21" y="16" width="2" height="1"/><rect x="9" y="17" width="1" height="1"/><rect x="12" y="17" width="2" height="1"/><rect x="17" y="17" width="2" height="1"/><rect x="21" y="17" width="1" height="1"/><rect x="9" y="18" width="1" height="1"/><rect x="13" y="18" width="5" height="1"/><rect x="21" y="18" width="1" height="1"/><rect x="9" y="19" width="2" height="1"/><rect x="15" y="19" width="1" height="1"/><rect x="20" y="19" width="2" height="1"/><rect x="10" y="20" width="2" height="1"/><rect x="19" y="20" width="2" height="1"/><rect x="11" y="21" width="4" height="1"/><rect x="16" y="21" width="4" height="1"/><rect x="14" y="22" width="3" height="1"/></g>
<g fill="#FFD23F"><rect x="9" y="3" width="1" height="1"/><rect x="6" y="4" width="7" height="1"/><rect x="5" y="5" width="4" height="1"/><rect x="10" y="5" width="4" height="1"/><rect x="4" y="6" width="3" height="1"/><rect x="12" y="6" width="3" height="1"/><rect x="4" y="7" width="2" height="1"/><rect x="13" y="7" width="2" height="1"/><rect x="4" y="8" width="2" height="1"/><rect x="13" y="8" width="2" height="1"/><rect x="3" y="9" width="2" height="1"/><rect x="14" y="9" width="2" height="1"/><rect x="4" y="10" width="2" height="1"/><rect x="13" y="10" width="2" height="1"/><rect x="4" y="11" width="2" height="1"/><rect x="13" y="11" width="2" height="1"/><rect x="4" y="12" width="3" height="1"/><rect x="12" y="12" width="3" height="1"/><rect x="5" y="13" width="4" height="1"/><rect x="6" y="14" width="2" height="1"/></g>
<g fill="#2CE8F5"><rect x="17" y="10" width="2" height="1"/><rect x="16" y="11" width="4" height="1"/><rect x="18" y="12" width="3" height="1"/><rect x="10" y="13" width="2" height="1"/><rect x="19" y="13" width="2" height="1"/><rect x="10" y="14" width="2" height="1"/><rect x="19" y="14" width="2" height="1"/><rect x="9" y="15" width="2" height="1"/><rect x="20" y="15" width="2" height="1"/><rect x="10" y="16" width="2" height="1"/><rect x="19" y="16" width="2" height="1"/><rect x="10" y="17" width="2" height="1"/><rect x="19" y="17" width="2" height="1"/><rect x="10" y="18" width="3" height="1"/><rect x="18" y="18" width="3" height="1"/><rect x="11" y="19" width="4" height="1"/><rect x="16" y="19" width="4" height="1"/><rect x="12" y="20" width="7" height="1"/><rect x="15" y="21" width="1" height="1"/></g>
</svg>
